<svg xmlns="http://www.w3.org/2000/svg" version="1.1" xmlns:xlink="http://www.w3.org/1999/xlink" xmlns:svgjs="http://svgjs.dev/svgjs" width="400" height="400" preserveAspectRatio="none" viewBox="0 0 400 400"><g mask="url(&quot;#SvgjsMask1027&quot;)" fill="none"><path d="M326.2 12.26L354.4 12.26L354.4 20.87L326.2 20.87z" fill="#d3b714"></path><path d="M225.31 56.13L260.91 56.13L260.91 91.73L225.31 91.73z" fill="#d3b714"></path><path d="M319.96 251.81 a17.43 17.43 0 1 0 34.86 0 a17.43 17.43 0 1 0 -34.86 0z" stroke="#e73635"></path><path d="M46.27 381.9a12.85 12.85 0 1 0-25.58-2.46z" fill="#d3b714"></path><path d="M305.21 297.14a20.94 20.94 0 1 0-25.99-32.85z" fill="#e73635"></path><path d="M31.86 364.37L38.71 364.37L38.71 371.22L31.86 371.22z" fill="#e73635"></path><path d="M46.79 339.78a7.85 7.85 0 1 0 14.58 5.84z" stroke="#d3b714"></path><path d="M180.69 365.39L188.15 365.39L188.15 372.85L180.69 372.85z" stroke="#e73635"></path><path d="M66.75 261.8a34.72 34.72 0 1 0-69.34 3.71z" fill="#037b0b"></path><path d="M215.41 44.7L218.48 44.7L218.48 45.12L215.41 45.12z" fill="#d3b714"></path><path d="M169.73 370.72a11.18 11.18 0 1 0 21.13-7.32z" stroke="#e73635"></path><path d="M337.26 146.83 a30.81 30.81 0 1 0 61.62 0 a30.81 30.81 0 1 0 -61.62 0z" stroke="#037b0b"></path><path d="M233.31 183.1L255.96 183.1L255.96 205.75L233.31 205.75z" stroke="#037b0b"></path></g><defs><mask id="SvgjsMask1027"><rect width="400" height="400" fill="#ffffff"></rect></mask></defs></svg>