<svg width="360" height="120" viewBox="0 0 360 120" fill="none" xmlns="http://www.w3.org/2000/svg">
<g clip-path="url(#clip0_97_2)">
<rect width="360" height="120" fill="white"/>
<path d="M130.568 85.456C131.677 85.456 132.531 85.968 133.128 86.992C133.811 88.016 134.152 89.424 134.152 91.216C134.152 94.544 133.341 97.1893 131.72 99.152C127.624 104.101 123.485 107.941 119.304 110.672C115.123 113.317 110.173 114.64 104.456 114.64C98.9093 114.64 94.1733 113.147 90.248 110.16C86.408 107.173 82.7387 102.053 79.24 94.8C76.424 88.9973 74.2053 84.7307 72.584 82C70.9627 79.184 69.3413 77.1787 67.72 75.984C66.184 74.7893 64.264 74.064 61.96 73.808C61.6187 75.6 60.6373 81.232 59.016 90.704C58.3333 94.9707 57.9067 97.5733 57.736 98.512C56.8827 103.717 55.176 107.728 52.616 110.544C50.056 113.275 46.1733 114.64 40.968 114.64C35.2507 114.64 30.1733 112.976 25.736 109.648C21.384 106.235 18.0133 101.541 15.624 95.568C13.2347 89.5093 12.04 82.64 12.04 74.96C12.04 60.624 14.5147 48.2507 19.464 37.84C24.4987 27.4293 31.496 19.4933 40.456 14.032C49.5013 8.48533 59.912 5.712 71.688 5.712C79.88 5.712 86.7493 6.94933 92.296 9.424C97.8427 11.8987 101.939 15.312 104.584 19.664C107.315 24.016 108.68 28.9227 108.68 34.384C108.68 39.1627 107.528 43.856 105.224 48.464C103.005 52.9867 99.6347 56.9973 95.112 60.496C90.5893 63.9947 85.0853 66.5973 78.6 68.304C82.696 69.4133 85.8533 71.2053 88.072 73.68C90.2907 76.1547 92.5093 79.7813 94.728 84.56C97.1173 89.68 99.464 93.4347 101.768 95.824C104.157 98.2133 106.888 99.408 109.96 99.408C112.691 99.408 115.293 98.512 117.768 96.72C120.243 94.8427 123.357 91.6853 127.112 87.248C128.136 86.0533 129.288 85.456 130.568 85.456ZM44.296 73.68C41.3947 73.68 39.3893 72.9973 38.28 71.632C37.256 70.2667 36.744 68.7307 36.744 67.024C36.744 64.976 37.384 63.3547 38.664 62.16C40.0293 60.9653 41.5653 60.368 43.272 60.368H46.472C47.8373 52.0053 49.1173 44.7947 50.312 38.736C51.4213 33.1893 55.0053 30.416 61.064 30.416C65.928 30.416 68.36 32.592 68.36 36.944C68.36 37.8827 68.3173 38.608 68.232 39.12L64.392 60.368C69 60.112 73.1813 59.0027 76.936 57.04C80.776 55.0773 83.8053 52.3467 86.024 48.848C88.328 45.3493 89.48 41.3813 89.48 36.944C89.48 31.568 87.6453 27.344 83.976 24.272C80.3067 21.2 74.9307 19.664 67.848 19.664C59.4853 19.664 52.1467 21.7547 45.832 25.936C39.6027 30.032 34.7387 36.176 31.24 44.368C27.7413 52.4747 25.992 62.3733 25.992 74.064C25.992 79.5253 26.5467 84.2187 27.656 88.144C28.7653 92.0693 30.1307 95.0133 31.752 96.976C33.3733 98.9387 34.9093 99.92 36.36 99.92C37.4693 99.92 38.3653 99.3653 39.048 98.256C39.816 97.1467 40.4133 95.3547 40.84 92.88L44.296 73.68ZM167.025 91.7C167.892 91.7 168.558 92.1 169.025 92.9C169.558 93.7 169.825 94.8 169.825 96.2C169.825 98.8667 169.192 100.933 167.925 102.4C165.458 105.4 161.958 108.167 157.425 110.7C152.958 113.233 148.158 114.5 143.025 114.5C136.025 114.5 130.592 112.6 126.725 108.8C122.858 105 120.925 99.8 120.925 93.2C120.925 88.6 121.892 84.3333 123.825 80.4C125.758 76.4 128.425 73.2333 131.825 70.9C135.292 68.5667 139.192 67.4 143.525 67.4C147.392 67.4 150.492 68.5667 152.825 70.9C155.158 73.1667 156.325 76.2667 156.325 80.2C156.325 84.8 154.658 88.7667 151.325 92.1C148.058 95.3667 142.492 97.9667 134.625 99.9C136.292 102.967 139.458 104.5 144.125 104.5C147.125 104.5 150.525 103.467 154.325 101.4C158.192 99.2667 161.525 96.5 164.325 93.1C165.125 92.1667 166.025 91.7 167.025 91.7ZM141.825 77.2C139.358 77.2 137.258 78.6333 135.525 81.5C133.858 84.3667 133.025 87.8333 133.025 91.9V92.1C136.958 91.1667 140.058 89.7667 142.325 87.9C144.592 86.0333 145.725 83.8667 145.725 81.4C145.725 80.1333 145.358 79.1333 144.625 78.4C143.958 77.6 143.025 77.2 141.825 77.2ZM168.783 114.5C166.249 114.5 164.449 113.167 163.383 110.5C162.383 107.833 161.883 103.567 161.883 97.7C161.883 89.0333 163.116 80.8 165.583 73C166.183 71.0667 167.149 69.6667 168.483 68.8C169.883 67.8667 171.816 67.4 174.283 67.4C175.616 67.4 176.549 67.5667 177.083 67.9C177.616 68.2333 177.883 68.8667 177.883 69.8C177.883 70.8667 177.383 73.2667 176.383 77C175.716 79.6667 175.183 82 174.783 84C174.383 86 174.049 88.4667 173.783 91.4C175.983 85.6667 178.449 81 181.183 77.4C183.916 73.8 186.583 71.2333 189.183 69.7C191.849 68.1667 194.283 67.4 196.483 67.4C200.816 67.4 202.983 69.5667 202.983 73.9C202.983 76.5 202.249 81.2 200.783 88C199.516 93.8 198.883 97.6333 198.883 99.5C198.883 102.167 199.849 103.5 201.783 103.5C203.116 103.5 204.683 102.7 206.483 101.1C208.349 99.4333 210.816 96.7667 213.883 93.1C214.683 92.1667 215.583 91.7 216.583 91.7C217.449 91.7 218.116 92.1 218.583 92.9C219.116 93.7 219.383 94.8 219.383 96.2C219.383 98.8667 218.749 100.933 217.483 102.4C214.616 105.933 211.516 108.833 208.183 111.1C204.916 113.367 201.183 114.5 196.983 114.5C193.583 114.5 191.016 113.533 189.283 111.6C187.549 109.6 186.683 106.733 186.683 103C186.683 101.133 187.149 97.8 188.083 93C188.949 88.8 189.383 85.9 189.383 84.3C189.383 83.2333 189.016 82.7 188.283 82.7C187.416 82.7 186.183 83.8333 184.583 86.1C183.049 88.3 181.449 91.2333 179.783 94.9C178.183 98.5667 176.883 102.433 175.883 106.5C175.149 109.633 174.283 111.767 173.283 112.9C172.349 113.967 170.849 114.5 168.783 114.5ZM268.092 91.7C268.959 91.7 269.626 92.1 270.092 92.9C270.626 93.7 270.892 94.8 270.892 96.2C270.892 98.8667 270.259 100.933 268.992 102.4C266.259 105.733 263.259 108.6 259.992 111C256.726 113.333 253.492 114.5 250.292 114.5C245.226 114.5 241.359 111.533 238.692 105.6C235.892 109.133 233.426 111.5 231.292 112.7C229.226 113.9 226.792 114.5 223.992 114.5C219.926 114.5 216.559 113 213.892 110C211.292 106.933 209.992 102.967 209.992 98.1C209.992 92.7667 211.126 87.8333 213.392 83.3C215.659 78.7 218.759 74.9667 222.692 72.1C226.692 69.1667 231.159 67.4333 236.092 66.9C237.359 53.9667 239.759 42.9333 243.292 33.8C246.892 24.6 251.592 20 257.392 20C260.259 20 262.626 21.3 264.492 23.9C266.426 26.5 267.392 30.4333 267.392 35.7C267.392 43.1667 265.559 51.9 261.892 61.9C258.226 71.9 253.326 82.1667 247.192 92.7C247.459 96.5667 248.026 99.3333 248.892 101C249.826 102.667 250.992 103.5 252.392 103.5C254.192 103.5 256.026 102.7 257.892 101.1C259.759 99.5 262.259 96.8333 265.392 93.1C266.192 92.1667 267.092 91.7 268.092 91.7ZM256.292 29.8C255.026 29.8 253.759 32.0667 252.492 36.6C251.226 41.0667 250.126 46.9333 249.192 54.2C248.326 61.4667 247.692 69.0667 247.292 77C254.759 60.7333 258.492 47.6667 258.492 37.8C258.492 35.2667 258.259 33.3 257.792 31.9C257.392 30.5 256.892 29.8 256.292 29.8ZM227.492 104.4C228.759 104.4 230.026 103.9 231.292 102.9C232.559 101.833 234.159 99.9 236.092 97.1C235.426 93.5 235.092 89.4667 235.092 85C235.092 83.4 235.159 80.8 235.292 77.2C231.626 78.3333 228.559 80.8 226.092 84.6C223.692 88.3333 222.492 92.5 222.492 97.1C222.492 101.967 224.159 104.4 227.492 104.4ZM307.357 91.7C308.224 91.7 308.89 92.1 309.357 92.9C309.89 93.7 310.157 94.8 310.157 96.2C310.157 98.8667 309.524 100.933 308.257 102.4C305.79 105.4 302.29 108.167 297.757 110.7C293.29 113.233 288.49 114.5 283.357 114.5C276.357 114.5 270.924 112.6 267.057 108.8C263.19 105 261.257 99.8 261.257 93.2C261.257 88.6 262.224 84.3333 264.157 80.4C266.09 76.4 268.757 73.2333 272.157 70.9C275.624 68.5667 279.524 67.4 283.857 67.4C287.724 67.4 290.824 68.5667 293.157 70.9C295.49 73.1667 296.657 76.2667 296.657 80.2C296.657 84.8 294.99 88.7667 291.657 92.1C288.39 95.3667 282.824 97.9667 274.957 99.9C276.624 102.967 279.79 104.5 284.457 104.5C287.457 104.5 290.857 103.467 294.657 101.4C298.524 99.2667 301.857 96.5 304.657 93.1C305.457 92.1667 306.357 91.7 307.357 91.7ZM282.157 77.2C279.69 77.2 277.59 78.6333 275.857 81.5C274.19 84.3667 273.357 87.8333 273.357 91.9V92.1C277.29 91.1667 280.39 89.7667 282.657 87.9C284.924 86.0333 286.057 83.8667 286.057 81.4C286.057 80.1333 285.69 79.1333 284.957 78.4C284.29 77.6 283.357 77.2 282.157 77.2ZM336.215 103.1C337.682 103.033 338.782 103.567 339.515 104.7C340.315 105.767 340.715 107.1 340.715 108.7C340.715 110.367 340.315 111.833 339.515 113.1C338.782 114.367 337.748 115 336.415 115C334.015 115 331.748 114.967 329.615 114.9C327.548 114.833 325.715 114.767 324.115 114.7C317.982 114.433 313.648 114.3 311.115 114.3C310.248 114.3 308.982 114.6 307.315 115.2C305.182 115.867 303.715 116.2 302.915 116.2C299.382 116.2 297.615 113.933 297.615 109.4C297.615 106.333 298.715 102.867 300.915 99C303.115 95.0667 305.982 91.2667 309.515 87.6C313.048 83.9333 316.715 80.8667 320.515 78.4L306.415 78.8C304.948 78.8667 303.815 78.3667 303.015 77.3C302.282 76.1667 301.915 74.8333 301.915 73.3C301.915 71.7 302.282 70.3 303.015 69.1C303.815 67.8333 304.882 67.2 306.215 67.2C309.148 67.2 312.782 67.4333 317.115 67.9C317.848 67.9667 319.415 68.1 321.815 68.3C324.282 68.5 326.548 68.6 328.615 68.6C329.282 68.6 330.548 68.3333 332.415 67.8C332.748 67.7333 333.382 67.5667 334.315 67.3C335.315 67.0333 336.148 66.9 336.815 66.9C337.882 66.9 338.748 67.3667 339.415 68.3C340.148 69.2333 340.515 70.6667 340.515 72.6C340.515 74.7333 339.982 76.4333 338.915 77.7C337.915 78.9667 336.382 80.1 334.315 81.1C331.982 82.1667 329.248 84 326.115 86.6C322.982 89.2 320.015 92.1 317.215 95.3C314.415 98.4333 312.348 101.4 311.015 104.2L336.215 103.1Z" fill="#dc2626"/>
</g>
<defs>
<clipPath id="clip0_97_2">
<rect width="360" height="120" fill="white"/>
</clipPath>
</defs>
</svg>
